<svg xmlns="http://www.w3.org/2000/svg" viewBox="0 0 1800 1200" role="img" aria-label="Cinematic dark ocean sunrise">
  <defs>
    <linearGradient id="bg" x1="0" x2="1" y1="0" y2="1">
      <stop offset="0%" stop-color="#030303"/>
      <stop offset="45%" stop-color="#15110e"/>
      <stop offset="100%" stop-color="#352316"/>
    </linearGradient>
    <radialGradient id="glow" cx="68%" cy="42%" r="45%">
      <stop offset="0%" stop-color="#d0a57a" stop-opacity=".7"/>
      <stop offset="38%" stop-color="#b8863c" stop-opacity=".22"/>
      <stop offset="100%" stop-color="#080808" stop-opacity="0"/>
    </radialGradient>
  </defs>
  <rect width="1800" height="1200" fill="url(#bg)"/>
  <rect width="1800" height="1200" fill="url(#glow)"/>
  <path d="M0 802c144-48 276-66 397-54 133 13 230 68 355 72 128 5 222-44 350-70 214-43 433-5 698 92v358H0V802Z" fill="#050505" opacity=".94"/>
  <path d="M0 918c174-42 334-52 480-30 119 18 221 57 345 48 118-9 225-62 354-69 164-9 363 49 621 174v159H0V918Z" fill="#0b0b0b"/>
  <circle cx="1225" cy="520" r="105" fill="#e4b77e" opacity=".38"/>
</svg>
